<?xml version="1.0" encoding="utf-8"?>
<!-- Generator: Adobe Illustrator 22.1.0, SVG Export Plug-In . SVG Version: 6.00 Build 0)  -->
<svg version="1.1" id="Layer_1" xmlns="http://www.w3.org/2000/svg" xmlns:xlink="http://www.w3.org/1999/xlink" x="0px" y="0px"
	 viewBox="0 0 32.6 467" enable-background="new 0 0 32.6 467" xml:space="preserve">
<g>
	<path fill="#FFFFFF" d="M0.5,0.5c0,233,22,233,32,233c-10,0-32,1-32,233"/>
	<path d="M1,0.5c0.1,20.2,0.2,40.4,0.7,60.6c0.4,20.2,1.1,40.4,2.2,60.6c0.6,10.1,1.2,20.2,2.1,30.2c0.9,10.1,1.9,20.1,3.3,30.1
		c0.7,5,1.5,10,2.5,14.9c0.5,2.5,1,4.9,1.6,7.4c0.6,2.4,1.2,4.9,1.9,7.3c1.4,4.8,3.1,9.6,5.6,13.9c1.3,2.1,2.8,4.1,4.8,5.5
		c0.5,0.4,1,0.6,1.6,0.9c0.3,0.1,0.6,0.2,0.8,0.3l0.4,0.2c0.1,0,0.3,0.1,0.4,0.1c1.1,0.4,2.4,0.7,3.7,0.7v0.3
		c-1.3-0.1-2.5,0.3-3.6,0.7c-0.6,0.1-1.1,0.4-1.7,0.6c-0.5,0.3-1.1,0.5-1.5,0.9c-2,1.4-3.5,3.4-4.8,5.6c-2.5,4.3-4.2,9.1-5.6,13.9
		c-2.8,9.7-4.5,19.6-6,29.6c-1.4,10-2.5,20-3.4,30.1c-0.9,10.1-1.5,20.1-2.1,30.2c-1.1,20.2-1.8,40.4-2.2,60.6
		c-0.4,20.2-0.6,40.4-0.7,60.6l0,0.5H0l0-0.5c0-20.2,0.1-40.4,0.5-60.6c0.4-20.2,1.1-40.4,2.2-60.6C3.3,335.2,4,325.1,4.9,315
		c0.9-10.1,1.9-20.1,3.4-30.2c1.5-10,3.2-20,6-29.8c1.4-4.9,3.1-9.7,5.7-14.1c1.3-2.2,2.9-4.3,5-5.9c1.1-0.8,2.3-1.4,3.6-1.7
		c1.3-0.3,2.6,0,3.9,0c0.1,0,0.1,0.1,0.1,0.1c0,0.1-0.1,0.1-0.1,0.1l0,0l0,0c-1.3,0-2.6,0.2-3.9,0c-1.3-0.2-2.5-0.8-3.6-1.6
		c-2.2-1.5-3.7-3.6-5.1-5.8c-2.6-4.4-4.3-9.3-5.7-14.1c-0.8-2.4-1.3-4.9-1.9-7.4c-0.5-2.5-1.1-4.9-1.6-7.4c-1-5-1.8-10-2.5-15
		c-1.4-10-2.5-20.1-3.4-30.2C4,142,3.3,131.9,2.7,121.8c-1.1-20.2-1.8-40.4-2.2-60.6C0.1,40.9,0,20.7,0,0.5L0,0h1L1,0.5z"/>
</g>
</svg>
