<?xml version="1.0" encoding="utf-8"?>
<!-- Generator: Adobe Illustrator 22.1.0, SVG Export Plug-In . SVG Version: 6.00 Build 0)  -->
<svg version="1.1" id="Layer_1" xmlns="http://www.w3.org/2000/svg" xmlns:xlink="http://www.w3.org/1999/xlink" x="0px" y="0px"
	 viewBox="0 0 19.7 20" enable-background="new 0 0 19.7 20" xml:space="preserve">
<path fill="#363063" d="M16.5,19.1L16.5,19.1H0.8l0,0V0.8l0,0h15.6l0,0v3.7h0.8V0.8c0-0.5-0.4-0.8-0.8-0.8H0.8C0.4,0,0,0.4,0,0.8
	v18.3C0,19.6,0.4,20,0.8,20h15.6c0.5,0,0.8-0.4,0.8-0.8v-4.8h-0.7V19.1z"/>
<path fill="#363063" d="M14.1,3.6H3.2c-0.5,0-0.9-0.4-0.9-0.9l0,0c0-0.5,0.4-0.9,0.9-0.9h10.9c0.5,0,0.9,0.4,0.9,0.9l0,0
	C15,3.2,14.6,3.6,14.1,3.6z"/>
<path fill="#363063" d="M14.9,18.3H3.5c-0.4,0-0.7-0.3-0.7-0.7l0,0c0-0.4,0.3-0.7,0.7-0.7h11.4c0.4,0,0.7,0.3,0.7,0.7l0,0
	C15.5,18,15.2,18.3,14.9,18.3z"/>
<path fill="#363063" d="M19,5.3H9.4C9,5.3,8.7,5.6,8.7,6v7.1c0,0.4,0.3,0.7,0.7,0.7h0.8c-0.161,0.739-0.249,1.209-0.4,1.9
	c-0.053,0.224,0.155,0.242,0.4,0.1c1.206-0.7,2.183-1.294,3.4-2H19c0.4,0,0.7-0.3,0.7-0.7V6C19.7,5.6,19.4,5.3,19,5.3z"/>
<path fill="#363063" d="M7.5,10.9H2.3c-0.4,0-0.7-0.3-0.7-0.7s0.3-0.7,0.7-0.7h5.2c0.4,0,0.7,0.3,0.7,0.7
	C8.2,10.6,7.9,10.9,7.5,10.9z"/>
<path fill="#363063" d="M7.5,13.6H2.3c-0.4,0-0.7-0.3-0.7-0.7s0.3-0.7,0.7-0.7h5.2c0.4,0,0.7,0.3,0.7,0.7S7.9,13.6,7.5,13.6z"/>
<path fill="#363063" d="M7.5,8.2H2.3c-0.4,0-0.7-0.3-0.7-0.7s0.3-0.7,0.7-0.7h5.2c0.4,0,0.7,0.3,0.7,0.7S7.9,8.2,7.5,8.2z"/>
<path id="_x24_" fill="#FFFFFF" d="M14.895,6.45v0.482c0.446,0.094,0.804,0.272,1.074,0.535c0.27,0.263,0.405,0.527,0.405,0.79
	c0,0.04-0.014,0.075-0.044,0.104c-0.029,0.029-0.061,0.044-0.097,0.044h-1.338c-0.103,0-0.197-0.038-0.281-0.114
	c-0.085-0.076-0.199-0.114-0.342-0.114c-0.214,0-0.321,0.063-0.321,0.187c0,0.067,0.052,0.123,0.157,0.168
	c0.105,0.045,0.3,0.085,0.586,0.12c0.665,0.085,1.139,0.24,1.422,0.465c0.283,0.226,0.425,0.548,0.425,0.967
	c0,0.42-0.15,0.765-0.452,1.034c-0.301,0.27-0.699,0.445-1.195,0.526v0.468c0,0.049-0.018,0.092-0.054,0.127
	c-0.035,0.036-0.078,0.054-0.127,0.054h-0.81c-0.049,0-0.092-0.018-0.127-0.054c-0.036-0.035-0.054-0.078-0.054-0.127v-0.462
	c-0.518-0.076-0.915-0.242-1.191-0.498c-0.277-0.257-0.415-0.552-0.415-0.887c0-0.04,0.015-0.075,0.044-0.104
	c0.029-0.029,0.064-0.044,0.104-0.044h1.272c0.094,0,0.198,0.045,0.312,0.134c0.113,0.089,0.271,0.134,0.472,0.134
	c0.334,0,0.502-0.062,0.502-0.187c0-0.08-0.06-0.142-0.18-0.184c-0.12-0.042-0.348-0.086-0.683-0.13
	c-1.151-0.152-1.727-0.643-1.727-1.472c0-0.379,0.135-0.703,0.405-0.971c0.27-0.268,0.633-0.442,1.088-0.522V6.45
	c0-0.049,0.018-0.092,0.054-0.127c0.035-0.036,0.078-0.054,0.127-0.054h0.81c0.049,0,0.092,0.018,0.127,0.054
	C14.877,6.358,14.895,6.401,14.895,6.45z"/>
</svg>
