<?xml version="1.0" encoding="utf-8"?>
<!-- Generator: Adobe Illustrator 22.1.0, SVG Export Plug-In . SVG Version: 6.00 Build 0)  -->
<svg version="1.1" id="Layer_1" xmlns="http://www.w3.org/2000/svg" xmlns:xlink="http://www.w3.org/1999/xlink" x="0px" y="0px"
	 viewBox="0 0 19.926 19.607" enable-background="new 0 0 19.926 19.607" xml:space="preserve">
<path fill="#363063" d="M6.845,1.214c0.451,0.584,0.781,1.27,0.878,2.044c0.053,0.414,0,0.845-0.1,1.345
	C7.612,4.745,7.681,4.916,7.843,5.079c0.6,0.6,2.029,2.029,2.029,2.029C8.942,7.947,8.297,8.616,7.301,9.537
	c0,0-1.378-1.378-1.978-1.978c-0.1-0.1-0.2-0.1-0.3-0.1c-2.5,0.7-5.034-1.209-4.934-3.909c0.021-0.506,0.102-0.9,0.302-1.4
	C0.501,1.89,0.756,1.892,0.923,2.059c0.7,0.7,1.5,1.5,2.2,2.2c0.3,0.3,0.6,0.4,1,0.3c0.6-0.1,0.9-0.9,0.4-1.4
	c-0.323-0.323-1.431-1.531-2.3-2.4c-0.253-0.253-0.2-0.502,0.2-0.6C3.887-0.2,5.915,0.009,6.845,1.214z"/>
<path fill="#363063" d="M9.923,12.259c0.8-0.8,1.6-1.6,2.5-2.5c0.1,0.1,0.2,0.2,0.3,0.3c0.7,0.7,1.3,1.3,2,2
	c0.1,0.1,0.2,0.1,0.3,0.1c2.5-0.7,5,1.3,4.9,3.9c0,0.4-0.1,0.9-0.3,1.3c-0.1,0.4-0.3,0.4-0.6,0.1c-0.7-0.7-1.5-1.5-2.2-2.2
	c-0.2-0.2-0.5-0.3-0.8-0.3c-0.4,0-0.6,0.2-0.8,0.6c-0.2,0.4,0,0.7,0.2,1c0.7,0.7,1.5,1.5,2.2,2.2l0.1,0.1c0.1,0.2,0.1,0.3-0.1,0.4
	c-1.4,0.7-3.4,0.3-4.4-0.8c-1-1.1-1.3-2.3-1-3.7c0-0.1,0-0.2-0.1-0.3C11.523,13.859,10.723,13.059,9.923,12.259z"/>
<path fill="#363063" d="M1.776,19.417c-0.622-0.583-1.096-1.035-1.668-1.673c-0.155-0.173-0.164-0.406,0.115-0.685
	c1.102-1.01,5.702-5.042,6.796-6.017c0.115-0.103,0.289-0.097,0.399,0.012l0.994,0.994c0.106,0.106,0.117,0.273,0.021,0.388
	c-0.813,0.98-4.095,4.958-5.911,6.864C2.234,19.587,2.006,19.634,1.776,19.417z"/>
<path fill="#363063" d="M19.677,6.465c-0.24-0.248-0.635-0.255-0.884-0.015l-0.14,0.135c-0.193-0.202-0.436-0.536-0.531-0.727
	c0-0.1,0-0.2,0-0.2c0-0.3-0.1-0.6-0.2-0.8c-0.299-0.498-0.598-0.997-0.897-1.396c-0.002-0.003-0.004-0.005-0.006-0.007
	c-0.599-0.698-1.298-1.297-1.997-1.797c-0.9-0.7-1.8-1.2-2.9-1.5c-0.8-0.2-2.096-0.086-2.577,0.041
	c0.098,0.034,0.977,0.359,1.177,0.859c0.733,0.208,1.5,0.6,2,1.3c0.4,0.6,0.563,1.18,0.2,1.9c-0.159,0.315,0.074,0.574,0.2,0.7
	c-1.879,1.879-3.718,3.733-5.606,5.621c-0.034,0.034-0.034,0.089,0,0.123l1.278,1.278c0.034,0.034,0.089,0.033,0.123-0.001
	c1.984-1.983,3.727-3.741,5.706-5.72c0.116,0.112,0.212,0.2,0.212,0.2c0.142,0.129,0.475,0.251,0.688,0.2
	c0.131-0.029,0.453,0,0.64,0.128c0.46,0.314,0.81,0.569,1.288,0.924c0.012,0.009,0.026-0.004,0.04-0.002l-0.258,0.249
	c-0.248,0.24-0.255,0.636-0.015,0.884c0.24,0.248,0.636,0.255,0.884,0.015l1.56-1.507C19.91,7.109,19.917,6.714,19.677,6.465z"/>
</svg>
